<svg xmlns="http://www.w3.org/2000/svg" viewBox="0 0 100 100"><rect width="100" height="100" rx="22" fill="#2a1c6e"/><g transform="translate(15 17) scale(.7)">
  <path d="M22 30 L30 8 L40 26 Z M78 30 L70 8 L60 26 Z" fill="#7a4a24"/>
  <g class="asa asa-e"><path d="M18 58 q-10 16 4 30 q6 -14 2 -30 Z" fill="#7a4a24"/></g>
  <g class="asa asa-d"><path d="M82 58 q10 16 -4 30 q-6 -14 -2 -30 Z" fill="#7a4a24"/></g>
  <ellipse cx="50" cy="58" rx="34" ry="37" fill="#9a6232"/>
  <ellipse cx="50" cy="70" rx="21" ry="21" fill="#e9c58f"/>
  <path d="M39 64 q4 4 8 0 M49 72 q4 4 8 0 M43 80 q4 4 8 0 M54 62 q4 4 8 0" stroke="#c49a5e" stroke-width="2.5" fill="none" stroke-linecap="round"/>
  <circle cx="35" cy="42" r="15" fill="#ffc83d"/><circle cx="65" cy="42" r="15" fill="#ffc83d"/>
  <circle cx="35" cy="42" r="11" fill="#fff"/><circle cx="65" cy="42" r="11" fill="#fff"/>
  <path d="M28 45 q7 -9 14 0 M58 45 q7 -9 14 0" stroke="#1b1f3a" stroke-width="4" fill="none" stroke-linecap="round"/>
  <path d="M45 52 L55 52 L50 61 Z" fill="#ff9a3c" stroke="#c85f0f" stroke-width="1.5" stroke-linejoin="round"/>
  <circle cx="24" cy="56" r="5" fill="#ff8a8e" opacity=".6"/><circle cx="76" cy="56" r="5" fill="#ff8a8e" opacity=".6"/>
  
</g></svg>
